<?xml version="1.0" encoding="UTF-8" standalone="no"?>
<!-- Created with Inkscape (http://www.inkscape.org/) -->

<svg
   width="1200"
   height="630"
   viewBox="0 0 317.49999 166.6875"
   version="1.1"
   id="svg1"
   xml:space="preserve"
   inkscape:version="1.4.4 (dcaf3e7d9e, 2026-05-05)"
   sodipodi:docname="og-image.svg"
   xmlns:inkscape="http://www.inkscape.org/namespaces/inkscape"
   xmlns:sodipodi="http://sodipodi.sourceforge.net/DTD/sodipodi-0.dtd"
   xmlns="http://www.w3.org/2000/svg"
   xmlns:svg="http://www.w3.org/2000/svg"><sodipodi:namedview
     id="namedview1"
     pagecolor="#ffffff"
     bordercolor="#000000"
     borderopacity="0.25"
     inkscape:showpageshadow="2"
     inkscape:pageopacity="0.0"
     inkscape:pagecheckerboard="0"
     inkscape:deskcolor="#d1d1d1"
     inkscape:document-units="mm"
     inkscape:zoom="0.42331174"
     inkscape:cx="605.93642"
     inkscape:cy="303.55879"
     inkscape:window-width="1920"
     inkscape:window-height="936"
     inkscape:window-x="0"
     inkscape:window-y="0"
     inkscape:window-maximized="0"
     inkscape:current-layer="layer1" /><defs
     id="defs1">
	
	
</defs><g
     inkscape:label="Layer 1"
     inkscape:groupmode="layer"
     id="layer1"><rect
       style="fill:#ffffff;fill-rule:evenodd;stroke-width:0.912658;stroke-linecap:round;fill-opacity:1"
       id="rect1"
       width="317.5"
       height="166.6875"
       x="7.7715612e-16"
       y="4.6629367e-15" /><g
       id="g1"
       transform="translate(-3.7284553)"><g
         id="g5"
         transform="matrix(0.16147981,0,0,0.16147981,32.083871,40.99567)">
		<path
   class="st0"
   d="m 147.1,296.4 v 68.2 34.1 c 0,18.8 15.3,34.1 34.1,34.1 h 0.4 c 18.8,0 34.1,-15.3 34.1,-34.1 v -34.1 -68.2 -34.1 c 0,-18.8 -15.3,-34.1 -34.1,-34.1 h -0.4 c -18.8,0 -34.1,15.3 -34.1,34.1 z"
   id="path1"
   style="fill:#034e79;fill-opacity:1" />
		<path
   class="st0"
   d="m 284.3,501 h 68.6 68.6 34.5 c 18.8,0 34.1,-15.3 34.1,-34.1 v 0 c 0,-18.8 -15.3,-34.1 -34.1,-34.1 H 421.5 387 c -18.8,0 -34.1,-15.3 -34.1,-34.1 v -34.1 -34.1 c 0,-18.8 -15.3,-34.1 -34.1,-34.1 h -0.4 c -18.8,0 -34.1,15.3 -34.1,34.1 v 34.1 34.1 c 0,18.8 -15.3,34.1 -34.1,34.1 h -0.4 c -18.8,0 -34.1,15.3 -34.1,34.1 v 0 c 0,18.8 15.3,34.1 34.1,34.1 z"
   id="path2"
   style="fill:#034e79;fill-opacity:1" />
		<path
   class="st0"
   d="M 421.4,23.5 H 387 c -18.8,0 -34.1,15.3 -34.1,34.1 v 0 c 0,18.8 -15.3,34.1 -34.1,34.1 h -34.5 -34.5 c -18.8,0 -34.1,15.3 -34.1,34.1 v 34.2 34.1 c 0,18.8 15.3,34.1 34.1,34.1 h 34.5 34.5 c 18.8,0 34.1,-15.3 34.1,-34.1 v 0 c 0,-18.8 15.3,-34.1 34.1,-34.1 h 0.4 c 18.8,0 34.1,15.3 34.1,34.1 v 0 c 0,18.8 15.3,34.1 34.1,34.1 h 0.4 c 18.8,0 34.1,-15.3 34.1,-34.1 V 160 91.8 57.7 C 490.1,38.9 474.8,23.6 456,23.6 h -34.6 z"
   id="path3"
   style="fill:#034e79;fill-opacity:1" />
		<path
   class="st0"
   d="m 455.5,364.6 h 0.4 c 18.8,0 34.1,-15.3 34.1,-34.1 v 0 c 0,-18.8 -15.3,-34.1 -34.1,-34.1 h -0.4 c -18.8,0 -34.1,15.3 -34.1,34.1 v 0 c 0,18.8 15.3,34.1 34.1,34.1 z"
   id="path4"
   style="fill:#034e79;fill-opacity:1" />
		<path
   class="st0"
   d="m 10,91.8 v 68.2 68.2 68.2 68.2 68.2 34.1 c 0,18.8 15.3,34.1 34.1,34.1 h 0.4 c 18.8,0 34.1,-15.3 34.1,-34.1 V 432.8 364.6 296.4 228.2 160 91.8 57.7 C 78.6,38.9 63.3,23.6 44.5,23.6 H 44.1 C 25.3,23.5 10,38.8 10,57.7 Z"
   id="path5"
   style="fill:#034e79;fill-opacity:1" />
	</g><g
         id="g12"
         transform="matrix(0.46431918,0,0,0.46431918,95.594139,-194.27269)">
		<path
   class="st0"
   d="m 95.8,626.5 c -4.1,0 -7.3,-0.8 -9.6,-2.4 -2.3,-1.6 -3.9,-3.8 -4.9,-6.6 -0.9,-2.8 -1.4,-6 -1.4,-9.6 V 588 c 0,-3.8 0.5,-7.1 1.4,-9.9 0.9,-2.8 2.5,-5 4.9,-6.5 2.3,-1.5 5.5,-2.3 9.6,-2.3 3.9,0 6.9,0.7 9,2 2.2,1.3 3.7,3.2 4.6,5.6 0.9,2.4 1.4,5.2 1.4,8.5 v 4.7 H 101 v -4.8 c 0,-1.6 -0.1,-3 -0.2,-4.3 -0.2,-1.3 -0.6,-2.3 -1.3,-3.1 -0.7,-0.8 -1.9,-1.1 -3.7,-1.1 -1.7,0 -3,0.4 -3.8,1.2 -0.8,0.8 -1.3,1.9 -1.5,3.2 -0.2,1.4 -0.3,2.9 -0.3,4.6 V 610 c 0,2 0.2,3.7 0.5,5 0.3,1.3 0.9,2.3 1.8,3 0.8,0.7 2,1 3.5,1 1.7,0 2.9,-0.4 3.6,-1.2 0.7,-0.8 1.2,-1.9 1.3,-3.2 0.2,-1.3 0.3,-2.8 0.3,-4.5 v -5 h 9.8 v 4.5 c 0,3.3 -0.4,6.2 -1.3,8.8 -0.9,2.5 -2.4,4.5 -4.6,6 -2.3,1.3 -5.4,2.1 -9.3,2.1 z"
   id="path6" />
		<path
   class="st0"
   d="m 146.8,626.5 c -3.9,0 -7.1,-0.7 -9.4,-2.2 -2.3,-1.5 -4,-3.6 -5,-6.3 -1,-2.7 -1.5,-6 -1.5,-9.8 v -20.8 c 0,-3.8 0.5,-7 1.5,-9.7 1,-2.7 2.7,-4.7 5,-6.2 2.3,-1.4 5.5,-2.1 9.4,-2.1 4,0 7.2,0.7 9.5,2.1 2.3,1.4 4,3.5 5,6.2 1,2.7 1.5,5.9 1.5,9.7 v 20.9 c 0,3.7 -0.5,6.9 -1.5,9.7 -1,2.7 -2.7,4.8 -5,6.3 -2.3,1.4 -5.4,2.2 -9.5,2.2 z m 0,-7.5 c 1.7,0 2.9,-0.4 3.8,-1.1 0.8,-0.7 1.3,-1.7 1.6,-3 0.3,-1.3 0.4,-2.7 0.4,-4.2 V 585 c 0,-1.6 -0.1,-3 -0.4,-4.2 -0.3,-1.2 -0.8,-2.2 -1.6,-2.9 -0.8,-0.7 -2.1,-1.1 -3.8,-1.1 -1.6,0 -2.8,0.4 -3.6,1.1 -0.8,0.7 -1.4,1.7 -1.7,2.9 -0.3,1.2 -0.4,2.6 -0.4,4.2 v 25.7 c 0,1.5 0.1,2.9 0.4,4.2 0.3,1.3 0.8,2.3 1.6,3 0.8,0.7 2.1,1.1 3.7,1.1 z"
   id="path7" />
		<path
   class="st0"
   d="m 184,625.7 1,-55.7 h 10.5 l 7.9,38.6 8.3,-38.6 h 10.2 l 1,55.7 h -7.6 l -0.8,-38.7 -7.9,38.7 h -6.1 l -8,-38.9 -0.8,38.9 z"
   id="path8" />
		<path
   class="st0"
   d="M 244.5,625.7 V 570 h 16.4 c 3.3,0 6.1,0.6 8.2,1.9 2.1,1.2 3.6,3 4.6,5.4 1,2.4 1.5,5.2 1.5,8.6 0,3.6 -0.6,6.5 -1.9,8.8 -1.2,2.2 -3,3.8 -5.2,4.9 -2.2,1 -4.9,1.5 -7.9,1.5 h -5.5 v 24.8 h -10.2 z m 10.2,-31.9 h 3.9 c 1.8,0 3.3,-0.3 4.3,-0.8 1,-0.5 1.7,-1.4 2.1,-2.5 0.4,-1.2 0.6,-2.7 0.6,-4.7 0,-2 -0.1,-3.7 -0.4,-4.9 -0.3,-1.2 -0.9,-2.2 -1.9,-2.8 -1,-0.6 -2.5,-0.9 -4.6,-0.9 h -3.9 v 16.6 z"
   id="path9" />
		<path
   class="st0"
   d="m 309.8,626.5 c -4.1,0 -7.3,-0.8 -9.6,-2.3 -2.3,-1.5 -3.9,-3.7 -4.7,-6.5 -0.9,-2.8 -1.3,-6.1 -1.3,-10 V 570 h 9.9 v 38.9 c 0,1.7 0.1,3.4 0.3,4.9 0.2,1.5 0.8,2.8 1.6,3.7 0.8,0.9 2.1,1.4 3.8,1.4 1.8,0 3.1,-0.5 3.9,-1.4 0.8,-0.9 1.3,-2.2 1.6,-3.7 0.2,-1.5 0.4,-3.2 0.4,-4.9 V 570 h 9.8 v 37.7 c 0,3.9 -0.4,7.2 -1.3,10 -0.9,2.8 -2.4,5 -4.7,6.5 -2.3,1.5 -5.6,2.3 -9.7,2.3 z"
   id="path10" />
		<path
   class="st0"
   d="m 352.8,625.7 v -48.2 h -8.9 V 570 h 27.8 v 7.5 H 363 v 48.2 z"
   id="path11" />
		<path
   class="st0"
   d="m 405.4,626.5 c -3.9,0 -7.1,-0.7 -9.4,-2.2 -2.3,-1.5 -4,-3.6 -5,-6.3 -1,-2.7 -1.5,-6 -1.5,-9.8 v -20.8 c 0,-3.8 0.5,-7 1.5,-9.7 1,-2.7 2.7,-4.7 5,-6.2 2.3,-1.4 5.5,-2.1 9.4,-2.1 4,0 7.2,0.7 9.5,2.1 2.3,1.4 4,3.5 5,6.2 1,2.7 1.5,5.9 1.5,9.7 v 20.9 c 0,3.7 -0.5,6.9 -1.5,9.7 -1,2.7 -2.7,4.8 -5,6.3 -2.3,1.4 -5.5,2.2 -9.5,2.2 z m 0,-7.5 c 1.7,0 2.9,-0.4 3.8,-1.1 0.8,-0.7 1.3,-1.7 1.6,-3 0.3,-1.3 0.4,-2.7 0.4,-4.2 V 585 c 0,-1.6 -0.1,-3 -0.4,-4.2 -0.3,-1.2 -0.8,-2.2 -1.6,-2.9 -0.8,-0.7 -2.1,-1.1 -3.8,-1.1 -1.6,0 -2.8,0.4 -3.6,1.1 -0.8,0.7 -1.4,1.7 -1.7,2.9 -0.3,1.2 -0.4,2.6 -0.4,4.2 v 25.7 c 0,1.5 0.1,2.9 0.4,4.2 0.3,1.3 0.8,2.3 1.6,3 0.8,0.7 2,1.1 3.7,1.1 z"
   id="path12" />
	</g></g></g><style
     type="text/css"
     id="style1">
	.st0{fill:currentColor;}
</style></svg>
